<?xml version="1.0" encoding="UTF-8" standalone="no"?>
<svg width="65px" height="65px" viewBox="0 0 65 65" version="1.1" xmlns="http://www.w3.org/2000/svg" xmlns:xlink="http://www.w3.org/1999/xlink">
    <!-- Generator: Sketch 40.2 (33826) - http://www.bohemiancoding.com/sketch -->
    <title>Artboard 2</title>
    <desc>Created with Sketch.</desc>
    <defs></defs>
    <g id="Page-1" stroke="none" stroke-width="1" fill="none" fill-rule="evenodd">
        <g id="Artboard-2" fill="#FFFFFF">
            <g id="Group-Copy" transform="translate(3.000000, 3.000000)">
                <path d="M59.226897,29.7119539 C59.226897,13.411301 46.0126069,0.197010886 29.7119539,0.197010886 C13.411301,0.197010886 0.197010886,13.411301 0.197010886,29.7119539 C0.197010886,46.0126069 13.411301,59.226897 29.7119539,59.226897 C46.0126069,59.226897 59.226897,46.0126069 59.226897,29.7119539 Z M4.34286492,29.7119539 C4.34286492,15.700993 15.700993,4.34286492 29.7119539,4.34286492 C43.7229149,4.34286492 55.081043,15.700993 55.081043,29.7119539 C55.081043,43.7229149 43.7229149,55.081043 29.7119539,55.081043 C15.700993,55.081043 4.34286492,43.7229149 4.34286492,29.7119539 Z" id="Oval-4"></path>
                <path d="M40.1854981,29.9919745 C40.1854981,24.3622469 35.6217021,19.7984509 29.9919745,19.7984509 C24.3622469,19.7984509 19.7984509,24.3622469 19.7984509,29.9919745 C19.7984509,35.6217021 24.3622469,40.1854981 29.9919745,40.1854981 C35.6217021,40.1854981 40.1854981,35.6217021 40.1854981,29.9919745 Z M23.9443049,29.9919745 C23.9443049,26.6519388 26.6519388,23.9443049 29.9919745,23.9443049 C33.3320102,23.9443049 36.0396441,26.6519388 36.0396441,29.9919745 C36.0396441,33.3320102 33.3320102,36.0396441 29.9919745,36.0396441 C26.6519388,36.0396441 23.9443049,33.3320102 23.9443049,29.9919745 Z" id="Oval-4"></path>
            </g>
        </g>
    </g>
</svg>