<?xml version="1.0" encoding="UTF-8" standalone="no"?>
<svg width="320px" height="60px" viewBox="0 0 320 60" version="1.1" xmlns="http://www.w3.org/2000/svg" xmlns:xlink="http://www.w3.org/1999/xlink">
    <!-- Generator: Sketch 40.2 (33826) - http://www.bohemiancoding.com/sketch -->
    <title>Artboard</title>
    <desc>Created with Sketch.</desc>
    <defs></defs>
    <g id="Page-1" stroke="none" stroke-width="1" fill="none" fill-rule="evenodd">
        <g id="Artboard" fill="#FFFFFF">
            <g id="Logo" transform="translate(1.000000, 3.000000)">
                <g id="Group">
                    <path d="M52.3170923,26.2455593 C52.3170923,11.8466492 40.6444694,0.174026283 26.2455593,0.174026283 C11.8466492,0.174026283 0.174026283,11.8466492 0.174026283,26.2455593 C0.174026283,40.6444694 11.8466492,52.3170923 26.2455593,52.3170923 C40.6444694,52.3170923 52.3170923,40.6444694 52.3170923,26.2455593 Z M3.83619735,26.2455593 C3.83619735,13.8692104 13.8692104,3.83619735 26.2455593,3.83619735 C38.6219082,3.83619735 48.6549213,13.8692104 48.6549213,26.2455593 C48.6549213,38.6219082 38.6219082,48.6549213 26.2455593,48.6549213 C13.8692104,48.6549213 3.83619735,38.6219082 3.83619735,26.2455593 Z" id="Oval-4"></path>
                    <path d="M35.49719,26.4929108 C35.49719,21.5199847 31.4658369,17.4886316 26.4929108,17.4886316 C21.5199847,17.4886316 17.4886316,21.5199847 17.4886316,26.4929108 C17.4886316,31.4658369 21.5199847,35.49719 26.4929108,35.49719 C31.4658369,35.49719 35.49719,31.4658369 35.49719,26.4929108 Z M21.1508027,26.4929108 C21.1508027,23.542546 23.542546,21.1508027 26.4929108,21.1508027 C29.4432757,21.1508027 31.8350189,23.542546 31.8350189,26.4929108 C31.8350189,29.4432757 29.4432757,31.8350189 26.4929108,31.8350189 C23.542546,31.8350189 21.1508027,29.4432757 21.1508027,26.4929108 Z" id="Oval-4"></path>
                </g>
                <path d="M84.015389,39.7401702 C90.695189,39.7401702 95.5732008,34.2908597 95.5732008,28.0065741 L95.5732008,27.918682 C95.5732008,21.6343965 90.739135,16.272978 84.1032811,16.272978 C77.423481,16.272978 72.5454692,21.7222886 72.5454692,28.0065741 L72.5454692,28.0944663 C72.5454692,34.3787518 77.379535,39.7401702 84.015389,39.7401702 L84.015389,39.7401702 Z M84.1032811,37.7186518 C78.9176468,37.7186518 74.87461,33.4119386 74.87461,28.0065741 L74.87461,27.918682 C74.87461,22.6451557 78.6979166,18.2944965 84.015389,18.2944965 C89.2010232,18.2944965 93.24406,22.6012097 93.24406,28.0065741 L93.24406,28.0944663 C93.24406,33.3679926 89.4207535,37.7186518 84.1032811,37.7186518 L84.1032811,37.7186518 Z M102.209055,38.2899505 C102.209055,38.9051952 102.692461,39.3886018 103.307706,39.3886018 C103.922951,39.3886018 104.362411,38.9051952 104.362411,38.2899505 L104.362411,34.3787518 C106.208146,37.1912992 109.108585,39.7401702 113.591082,39.7401702 C118.996447,39.7401702 124.489704,35.3016189 124.489704,28.0065741 L124.489704,27.918682 C124.489704,20.6236373 118.996447,16.272978 113.591082,16.272978 C109.152531,16.272978 106.296038,18.8657952 104.362411,21.8101807 L104.362411,8.05506617 C104.362411,7.39587538 103.879005,6.95641485 103.26376,6.95641485 C102.648515,6.95641485 102.209055,7.39587538 102.209055,8.05506617 L102.209055,38.2899505 Z M113.371352,37.6747058 C108.713071,37.6747058 104.230573,33.8074531 104.230573,28.0505202 L104.230573,27.9626281 C104.230573,22.2496412 108.713071,18.3384425 113.371352,18.3384425 C118.07358,18.3384425 122.160563,22.1178031 122.160563,28.0065741 L122.160563,28.0944663 C122.160563,34.1150755 118.249364,37.6747058 113.371352,37.6747058 L113.371352,37.6747058 Z M131.257396,9.85685434 C131.257396,10.6039372 131.828694,11.1752359 132.575777,11.1752359 C133.32286,11.1752359 133.938105,10.6039372 133.938105,9.85685434 L133.938105,9.10977144 C133.938105,8.36268854 133.32286,7.79138986 132.575777,7.79138986 C131.828694,7.79138986 131.257396,8.36268854 131.257396,9.10977144 L131.257396,9.85685434 Z M128.884309,46.3760242 C131.784748,46.3760242 133.674429,44.7060742 133.674429,41.19039 L133.674429,17.7231978 C133.674429,17.064007 133.191022,16.6245465 132.575777,16.6245465 C131.960533,16.6245465 131.521072,17.1079531 131.521072,17.7231978 L131.521072,41.3222281 C131.521072,43.4316387 130.422421,44.4423979 128.840363,44.4423979 C128.576687,44.4423979 128.225118,44.3984518 127.87355,44.3984518 C127.346197,44.3984518 126.906736,44.8379124 126.906736,45.365265 C126.906736,45.8926176 127.302251,46.2441861 127.829604,46.3320782 C128.137226,46.3760242 128.488794,46.3760242 128.884309,46.3760242 L128.884309,46.3760242 Z M142.9031,26.9518689 C143.298614,21.9859649 146.726406,18.2505504 151.164958,18.2505504 C156.306646,18.2505504 158.899463,22.4254254 159.207085,26.9518689 L142.9031,26.9518689 Z M160.349683,36.0926479 C160.613359,35.8289715 160.701251,35.5652952 160.701251,35.345565 C160.701251,34.7742663 160.217845,34.3348057 159.646546,34.3348057 C159.338923,34.3348057 159.119193,34.4666439 158.943409,34.6424281 C157.141621,36.4002702 154.900372,37.7186518 151.69231,37.7186518 C147.297705,37.7186518 143.298614,34.4666439 142.9031,28.8854952 L160.481521,28.8854952 C161.008873,28.8854952 161.536226,28.4020886 161.536226,27.874736 C161.536226,21.4586123 157.537135,16.272978 151.25285,16.272978 C145.188294,16.272978 140.617905,21.4586123 140.617905,27.9626281 L140.617905,28.0505202 C140.617905,35.0379426 145.715647,39.7401702 151.604418,39.7401702 C155.647455,39.7401702 158.15238,38.2899505 160.349683,36.0926479 L160.349683,36.0926479 Z M177.708374,39.7401702 C181.53168,39.7401702 184.124497,38.1581123 186.365746,35.8729176 C186.54153,35.6971334 186.629422,35.4334571 186.629422,35.2137268 C186.629422,34.6863742 186.10207,34.1590215 185.574717,34.1590215 C185.267095,34.1590215 185.047364,34.3348057 184.87158,34.51059 C183.069792,36.3123781 180.740651,37.7186518 177.840212,37.7186518 C172.698524,37.7186518 168.611541,33.4119386 168.611541,28.0065741 L168.611541,27.918682 C168.611541,22.5572636 172.566685,18.2944965 177.664427,18.2944965 C180.696705,18.2944965 182.806116,19.7447162 184.607904,21.4586123 C184.783688,21.6343965 185.09131,21.7222886 185.354987,21.7222886 C185.970231,21.7222886 186.453638,21.238882 186.453638,20.6236373 C186.453638,20.3160149 186.3218,20.0083925 186.146016,19.8326083 C184.124497,17.9429281 181.575626,16.272978 177.708374,16.272978 C171.29225,16.272978 166.2824,21.7222886 166.2824,28.0065741 L166.2824,28.0944663 C166.2824,34.3787518 171.248304,39.7401702 177.708374,39.7401702 L177.708374,39.7401702 Z M200.384537,39.6083321 C201.658972,39.6083321 202.669732,39.3446558 203.548653,39.0370334 C203.988113,38.8612492 204.251789,38.5536268 204.251789,38.1141663 C204.251789,37.5868137 203.768383,37.1473531 203.284976,37.1473531 C202.977354,37.1473531 202.274217,37.5868137 200.736105,37.5868137 C198.143288,37.5868137 196.253608,36.4442163 196.253608,33.2361544 L196.253608,18.7779031 L203.284976,18.7779031 C203.812329,18.7779031 204.295735,18.3384425 204.295735,17.8110899 C204.295735,17.2837373 203.812329,16.8003307 203.284976,16.8003307 L196.253608,16.8003307 L196.253608,10.5599912 C196.253608,9.94474644 195.770201,9.46133986 195.154956,9.46133986 C194.539712,9.46133986 194.100251,9.94474644 194.100251,10.5599912 L194.100251,16.8003307 L191.683218,16.8003307 C191.155866,16.8003307 190.672459,17.2397912 190.672459,17.7671438 C190.672459,18.2944965 191.155866,18.7779031 191.683218,18.7779031 L194.100251,18.7779031 L194.100251,33.4558847 C194.100251,37.7186518 196.912799,39.6083321 200.384537,39.6083321 L200.384537,39.6083321 Z M210.536075,9.85685434 C210.536075,10.6039372 211.107374,11.1752359 211.854457,11.1752359 C212.601539,11.1752359 213.216784,10.6039372 213.216784,9.85685434 L213.216784,9.10977144 C213.216784,8.36268854 212.601539,7.79138986 211.854457,7.79138986 C211.107374,7.79138986 210.536075,8.36268854 210.536075,9.10977144 L210.536075,9.85685434 Z M210.799751,38.2899505 C210.799751,38.9491413 211.283158,39.3886018 211.898403,39.3886018 C212.513647,39.3886018 212.953108,38.9491413 212.953108,38.2899505 L212.953108,17.7231978 C212.953108,17.064007 212.469701,16.6245465 211.854457,16.6245465 C211.239212,16.6245465 210.799751,17.1079531 210.799751,17.7231978 L210.799751,38.2899505 Z M231.41045,38.5975729 L240.463337,18.2944965 C240.551229,18.0747662 240.595175,17.9429281 240.595175,17.7231978 C240.595175,17.1079531 240.111769,16.6245465 239.496524,16.6245465 C238.925225,16.6245465 238.617603,16.9761149 238.441819,17.4155754 L230.136015,36.7957847 L221.962049,17.5034675 C221.742318,17.0200609 221.478642,16.6245465 220.819451,16.6245465 C220.160261,16.6245465 219.676854,17.1079531 219.676854,17.7231978 C219.676854,17.9429281 219.764746,18.1626583 219.852638,18.3823886 L228.861579,38.5975729 C229.125255,39.1688716 229.476824,39.52044 230.092068,39.52044 L230.179961,39.52044 C230.795205,39.52044 231.146774,39.1688716 231.41045,38.5975729 L231.41045,38.5975729 Z M247.758382,26.9518689 C248.153896,21.9859649 251.581688,18.2505504 256.02024,18.2505504 C261.161928,18.2505504 263.754745,22.4254254 264.062367,26.9518689 L247.758382,26.9518689 Z M265.204965,36.0926479 C265.468641,35.8289715 265.556533,35.5652952 265.556533,35.345565 C265.556533,34.7742663 265.073127,34.3348057 264.501828,34.3348057 C264.194205,34.3348057 263.974475,34.4666439 263.798691,34.6424281 C261.996903,36.4002702 259.755654,37.7186518 256.547592,37.7186518 C252.152987,37.7186518 248.153896,34.4666439 247.758382,28.8854952 L265.336803,28.8854952 C265.864155,28.8854952 266.391508,28.4020886 266.391508,27.874736 C266.391508,21.4586123 262.392417,16.272978 256.108132,16.272978 C250.043576,16.272978 245.473187,21.4586123 245.473187,27.9626281 L245.473187,28.0505202 C245.473187,35.0379426 250.570929,39.7401702 256.4597,39.7401702 C260.502737,39.7401702 263.007662,38.2899505 265.204965,36.0926479 L265.204965,36.0926479 Z M273.466823,38.2460044 C273.466823,38.8612492 273.994175,39.3886018 274.60942,39.3886018 C275.224665,39.3886018 275.752017,38.8612492 275.752017,38.2460044 L275.752017,9.41739381 C275.752017,8.80214907 275.224665,8.27479644 274.60942,8.27479644 C273.994175,8.27479644 273.466823,8.80214907 273.466823,9.41739381 L273.466823,38.2460044 Z M299.263156,39.7401702 C303.174354,39.7401702 306.5582,38.4217887 309.151017,36.224486 L312.622756,39.3886018 C312.930378,39.6522781 313.194054,39.8280623 313.589569,39.8280623 C314.24876,39.8280623 314.776112,39.3007097 314.776112,38.6415189 C314.776112,38.2020584 314.600328,37.9383821 314.24876,37.6307597 L310.733075,34.6863742 C313.281946,31.7859347 314.776112,27.918682 314.776112,23.8316991 L314.776112,23.743807 C314.776112,15.3501109 308.667611,7.92322801 299.351048,7.92322801 C290.034485,7.92322801 283.838091,15.438003 283.838091,23.8316991 L283.838091,23.9195912 C283.838091,32.3132873 289.946592,39.7401702 299.263156,39.7401702 L299.263156,39.7401702 Z M302.383325,30.379661 L307.525014,34.7742663 C305.327711,36.6200005 302.515163,37.6747058 299.351048,37.6747058 C291.748381,37.6747058 286.211178,31.4343663 286.211178,23.8316991 L286.211178,23.743807 C286.211178,16.1411399 291.660488,9.9886925 299.263156,9.9886925 C306.865823,9.9886925 312.403025,16.229032 312.403025,23.8316991 L312.403025,23.9195912 C312.403025,27.5231676 311.172536,30.8191215 309.063125,33.2361544 L304.009329,28.6218189 C303.701707,28.3581426 303.438031,28.1823584 303.042516,28.1823584 C302.383325,28.1823584 301.855973,28.709711 301.855973,29.3689018 C301.855973,29.8083623 302.031757,30.0720386 302.383325,30.379661 L302.383325,30.379661 Z" id="objectiveIQ"></path>
            </g>
        </g>
    </g>
</svg>